# xmcd
#
# Track frame offsets:
#	150
#	21542
#	37355
#	39692
#	56895
#	68737
#	89862
#	107062
#	124307
#	126702
#	142482
#	158750
#	180622
#	182695
#	197535
#	210955
#	227447
#	246400
#	263542
#	281872
#	299227
#
# Disc length: 4018 seconds
#
# Revision: 0
# Processed by: cddbd v1.5.1PL0 Copyright (c) Steve Scherf et al.
# Submitted via: dBpowerAMP V4.0
#
DISCID=5f0fb015
DTITLE=Cathy Grier - Comin' Back to Me
DYEAR=2002
DGENRE=Blues
TTITLE0=Comin' Back to Me
TTITLE1=What Fools Do
TTITLE2=Noodle #1
TTITLE3=Question Of Desire
TTITLE4=Keep You out
TTITLE5=Easy Come Easy Go
TTITLE6=Stealing Hearts
TTITLE7=Dream Has Died
TTITLE8=Noodle #2
TTITLE9=Good Thing
TTITLE10=Get me Away
TTITLE11=At Your feet
TTITLE12=Noodle #3
TTITLE13=Lebanon
TTITLE14=Through My Eyes
TTITLE15=Just Because
TTITLE16=Fallen Friends
TTITLE17=Privacy
TTITLE18=Heaven
TTITLE19=Love's in Need of Love Today (Stevie Wonder)
TTITLE20=Noodle #4
EXTD=
EXTT0=
EXTT1=
EXTT2=
EXTT3=
EXTT4=
EXTT5=
EXTT6=
EXTT7=
EXTT8=
EXTT9=
EXTT10=
EXTT11=
EXTT12=
EXTT13=
EXTT14=
EXTT15=
EXTT16=
EXTT17=
EXTT18=
EXTT19=
EXTT20=
PLAYORDER=
